<?xml version="1.0" encoding="iso-8859-1"?>
<!-- Uploaded to: SVG Repo, www.svgrepo.com, Generator: SVG Repo Mixer Tools -->
<svg fill="#000000" height="800px" width="800px" version="1.1" id="Layer_1" xmlns="http://www.w3.org/2000/svg" xmlns:xlink="http://www.w3.org/1999/xlink" 
	 viewBox="0 0 512 512" xml:space="preserve">
<g>
	<g>
		<path d="M441.183,326.902c-29.027,79.545-105.44,136.49-194.905,136.49c-114.356,0-207.392-93.036-207.392-207.392
			S131.922,48.608,246.279,48.608c89.469,0,165.885,56.95,194.909,136.502c9.745-4.412,20.55-6.882,31.927-6.882
			c2.346,0,4.662,0.123,6.957,0.327C447.533,80.584,355.031,9.721,246.279,9.721C110.479,9.721,0,120.201,0,256
			s110.479,246.279,246.279,246.279c108.753,0,201.255-70.862,233.792-168.833c-2.294,0.205-4.611,0.327-6.957,0.327
			C461.738,333.772,450.929,331.312,441.183,326.902z"/>
	</g>
</g>
<g>
	<g>
		<circle cx="473.114" cy="256" r="38.886"/>
	</g>
</g>
<g>
	<g>
		<path d="M246.279,87.494c-93.063,0-168.506,75.443-168.506,168.506s75.443,168.506,168.506,168.506S414.785,349.063,414.785,256
			S339.342,87.494,246.279,87.494z M144.972,304l-24.153-15.37c-2.713-10.429-4.161-21.363-4.161-32.629
			c0-26.318,7.891-50.824,21.422-71.291h46.124l-48.103,19.242v71.492h18.391L144.972,304z M246.279,385.62
			c-7.768,0-15.377-0.688-22.773-2.004c5.629-3.406,9.405-9.569,9.405-16.629c0-10.738-8.705-19.443-19.443-19.443
			s-19.443,8.705-19.443,19.443c0,3.045,0.719,5.915,1.968,8.48c-10.178-4.299-19.691-9.871-28.352-16.501l40.803-122.409h-33.456
			v-6.28l64.81-25.924v-58.53h-61.723c19.825-12.317,43.196-19.443,68.204-19.443c6.607,0,13.099,0.5,19.443,1.458v49.444
			l25.924,12.962v33.351h-48.344l-20.739,103.696h48.137l15.599,51.998C273.688,383.392,260.239,385.62,246.279,385.62z
			 M357.432,247.79l-13.306,93.132c-6.688,7.697-14.269,14.598-22.577,20.545l-21.919-73.062h-29.635l5.185-25.924h55.352v-96.269
			l-8.21-4.105l-17.714-8.858v-7.426h9.874c2.861,1.777,5.648,3.663,8.354,5.65c25.212,18.516,43.508,45.918,50.232,77.553
			L357.432,247.79z"/>
	</g>
</g>
</svg>